<svg width="128" height="128" viewBox="0 0 128 128" xmlns="http://www.w3.org/2000/svg">
  <!-- 背景 -->
  <rect width="128" height="128" rx="16" fill="#4285f4"/>
  
  <!-- 翻譯圖標 - 兩個對話框 -->
  <g transform="translate(20, 20)">
    <!-- 左側對話框 -->
    <path d="M 10 20 L 10 35 Q 10 40 15 40 L 35 40 Q 40 40 40 35 L 40 20 Q 40 15 35 15 L 15 15 Q 10 15 10 20 Z" fill="white" opacity="0.9"/>
    <path d="M 10 35 L 10 42 L 20 35 Z" fill="white" opacity="0.9"/>
    
    <!-- 右側對話框 -->
    <path d="M 48 45 L 48 60 Q 48 65 53 65 L 73 65 Q 78 65 78 60 L 78 45 Q 78 40 73 40 L 53 40 Q 48 40 48 45 Z" fill="white"/>
    <path d="M 78 60 L 78 67 L 68 60 Z" fill="white"/>
    
    <!-- 文字符號 A -->
    <text x="25" y="33" font-family="Arial, sans-serif" font-size="16" font-weight="bold" text-anchor="middle" fill="#4285f4">A</text>
    
    <!-- 文字符號 文 -->
    <text x="63" y="58" font-family="Arial, sans-serif" font-size="16" font-weight="bold" text-anchor="middle" fill="#4285f4">文</text>
  </g>
</svg>
